# AST/ASF file generated using VICON BodyLanguage
# -----------------------------------------------
:version 1.10
:name VICON
:units
  mass 1.0
  length 0.45
  angle deg
:documentation
   .ast/.asf automatically generated from VICON data using
   VICON BodyBuilder and BodyLanguage model FoxedUp or BRILLIANT.MOD
:root
   order TX TY TZ RX RY RZ
   axis XYZ
   position 0 0 0  
   orientation 0 0 0 
:bonedata
  begin
     id 1 
     name lhipjoint
     direction 0.673618 -0.716094 0.182886 
     length 2.63917 
     axis 0 0 0  XYZ
  end
  begin
     id 2 
     name lfemur
     direction 0.34202 -0.939693 0  
     length 7.41015  
     axis 0 0 20  XYZ
    dof rx ry rz
    limits (-160.0 20.0)
           (-70.0 70.0)
           (-60.0 70.0)
  end
  begin
     id 3 
     name ltibia
     direction 0.34202 -0.939693 0   
     length 7.92551   
     axis 0 0 20   XYZ
    dof rx
    limits (-10.0 170.0)
  end
  begin
     id 4 
     name lfoot
     direction 0.0786834 -0.216181 0.973178   
     length 2.28657   
     axis -90 7.62852e-016 20   XYZ
    dof rx rz
    limits (-45.0 90.0)
           (-70.0 20.0)
  end
  begin
     id 5 
     name ltoes
     direction 1.53562e-011 -4.21928e-011 1   
     length 1.14687   
     axis -90 7.62852e-016 20   XYZ
    dof rx
    limits (-90.0 20.0)
  end
  begin
     id 6 
     name rhipjoint
     direction -0.630561 -0.752002 0.192056   
     length 2.51315  
     axis 0 0 0  XYZ 
  end
  begin
     id 7 
     name rfemur
     direction -0.34202 -0.939693 0   
     length 7.61317   
     axis 0 0 -20   XYZ
    dof rx ry rz
    limits (-160.0 20.0)
           (-70.0 70.0)
           (-70.0 60.0)
  end
  begin
     id 8 
     name rtibia
     direction -0.34202 -0.939693 0   
     length 7.99175   
     axis 0 0 -20   XYZ
    dof rx
    limits (-10.0 170.0)
 end
 begin
     id 9 
     name rfoot
     direction -0.109419 -0.300625 0.947445   
     length 2.34126  
     axis -90 -7.62852e-016 -20   XYZ
    dof rx rz
    limits (-45.0 90.0)
           (-20.0 70.0)
  end
  begin
     id 10 
     name rtoes
     direction -1.53603e-011 -4.21913e-011 1   
     length 1.16381   
     axis -90 -7.62852e-016 -20   XYZ
    dof rx
    limits (-90.0 20.0)
  end
  begin
     id 11 
     name lowerback
     direction 0.0168077 0.993836 -0.109583   
     length 2.02862   
     axis 0 0 0   XYZ
    dof rx ry rz
    limits (-20.0 45.0)
           (-30.0 30.0)
           (-30.0 30.0)
  end
  begin
     id 12 
     name upperback
     direction 0.0170634 0.999844 0.00461437   
     length 2.03044   
     axis 0 0 0   XYZ
    dof rx ry rz
    limits (-20.0 45.0)
           (-30.0 30.0)
           (-30.0 30.0)
  end
  begin
     id 13 
     name thorax
     direction 0.00813305 0.998421 0.0555897   
     length 2.05762   
     axis 0 0 0   XYZ
    dof rx ry rz
    limits (-20.0 45.0)
           (-30.0 30.0)
           (-30.0 30.0)
  end
  begin
     id 14 
     name lowerneck
     direction -0.00127547 0.992596 0.121455   
     length 1.7173   
     axis 0 0 0   XYZ
    dof rx ry rz
    limits (-20.0 45.0)
           (-30.0 30.0)
           (-30.0 30.0)
  end
  begin
     id 15 
     name upperneck
     direction 0.0144921 0.991716 -0.127628   
     length 1.73779   
     axis 0 0 0   XYZ
    dof rx ry rz
    limits (-20.0 45.0)
           (-30.0 30.0)
           (-30.0 30.0)
  end
  begin
     id 16
     name head
     direction 0.00161449 0.998411 -0.0563246  
     length 1.74399  
     axis 0 0 0   XYZ
    dof rx ry rz
    limits (-20.0 45.0)
           (-30.0 30.0)
           (-30.0 30.0)
  end
  begin
     id 17 
     name lclavicle
     direction 0.952642 0.284773 -0.106664  
     length 3.53079  
     axis 0 0 0   XYZ
    dof ry rz
    limits (-20.0 10.0)
           (0.0 20.0)
  end
  begin
     id 18 
     name lhumerus
     direction 1 -4.48971e-011 1.90155e-027   
     length 5.06507   
     axis 180 -30 -90   XYZ
    dof rx ry rz
    limits (-60.0 90.0)
           (-90.0 90.0)
           (-90.0 90.0)
  end
  begin
     id 19
     name lradius
     direction 1 -4.48978e-011 1.0994e-027   
     length 3.60196   
     axis 180 -30 -90   XYZ
    dof rx
    limits (-10.0 170.0)
  end
  begin
     id 20
     name lwrist
     direction 1 -4.48947e-011 2.56952e-028   
     length 1.80098   
     axis -5.12785e-016 90 90   XYZ
    dof ry
    limits (-180.0 0.0)
 end
  begin
     id 21 
     name lhand
     direction 1 -4.49009e-011 5.13905e-028   
     length 0.450346   
     axis -3.27915e-016 90 90   XYZ
    dof rx rz
    limits (-90.0 90.0)
           (-45.0 45.0)
  end
  begin
     id 22 
     name lfingers
     direction 1 -4.48975e-011 1.02781e-027   
     length 0.363081   
     axis -6.5583e-016 90 90   XYZ
    dof rx
    limits (0.0 90.0)
  end
  begin
     id 23
     name lthumb
     direction 0.707107 -6.34941e-011 0.707107   
     length 0.521313   
     axis -90 45 2.85299e-015   XYZ
    dof rx rz
    limits (-45.0 45.0)
           (-45.0 45.0)
  end
  begin
     id 24 
     name rclavicle
     direction -0.955889 0.219434 -0.195256   
     length 3.66318  
     axis 0 0 0   XYZ 
    dof ry rz
    limits (-10.0 20.0)
           (-20.0 0.0)
  end
  begin
     id 25 
     name rhumerus
     direction -1 -4.48973e-011 1.65154e-027  
     length 5.36394   
     axis 180 30 90   XYZ
    dof rx ry rz
    limits (-90.0 60.0)
           (-90.0 90.0)
           (-90.0 90.0)
  end
  begin
     id 26 
     name rradius
     direction -1 -4.4898e-011 3.26231e-028   
     length 3.58035   
     axis 180 30 90   XYZ
    dof rx
    limits (-10.0 170.0)
  end
  begin
     id 27 
     name rwrist
     direction -1 -4.4894e-011 2.56952e-028   
     length 1.79017   
     axis -5.12785e-016 -90 -90   XYZ
    dof ry
    limits (-180.0 0.0)
  end
  begin
     id 28
     name rhand
     direction -1 -4.48999e-011 5.13905e-028   
     length 0.663747   
     axis -3.27915e-016 -90 -90   XYZ
    dof rx rz
    limits (-90.0 90.0)
           (-45.0 45.0)
  end
  begin
     id 29
     name rfingers
     direction -1 -4.49025e-011 1.02781e-027   
     length 0.53513   
     axis -6.5583e-016 -90 -90   XYZ
    dof rx
    limits (0.0 90.0)
  end
  begin
     id 30
     name rthumb
     direction -0.707107 -6.34891e-011 0.707107   
     length 0.768342   
     axis -90 -45 -2.85299e-015   XYZ
    dof rx rz
    limits (-45.0 45.0)
           (-45.0 45.0)
  end
:hierarchy
  begin
    root lhipjoint rhipjoint lowerback
    lhipjoint lfemur
    lfemur ltibia
    ltibia lfoot
    lfoot ltoes
    rhipjoint rfemur
    rfemur rtibia
    rtibia rfoot
    rfoot rtoes
    lowerback upperback
    upperback thorax
    thorax lowerneck lclavicle rclavicle
    lowerneck upperneck
    upperneck head
    lclavicle lhumerus
    lhumerus lradius
    lradius lwrist
    lwrist lhand lthumb
    lhand lfingers
    rclavicle rhumerus
    rhumerus rradius
    rradius rwrist
    rwrist rhand rthumb
    rhand rfingers
  end

#!OML:ASF F:\VICON\USERDATA\INSTALL\rory3\rory3.ASF
:FULLY-SPECIFIED
:DEGREES
32
root 4.84891 17.8788 -14.9379 -3.50253 -6.23176 -1.67563
lowerback 10.9447 1.7905 0.322543
upperback 0.573799 2.46242 0.769072
thorax -5.55823 1.21178 0.24001
lowerneck -15.6928 -3.83506 -1.97923
upperneck 22.6451 -5.06006 0.778198
head 9.84948 -2.42745 -0.0582503
rclavicle 2.19461e-014 -6.19649e-015
rhumerus -28.4716 -17.8138 -78.6476
rradius 29.3108
rwrist 0.805313
rhand -19.0052 24.1928
rfingers 7.12502
rthumb 7.30012 -5.66126
lclavicle 2.19461e-014 -6.19649e-015
lhumerus -37.1659 3.08307 83.1209
lradius 23.1295
lwrist 5.84883
lhand -26.936 19.3359
lfingers 7.12502
lthumb -0.358236 49.3153
rfemur -4.10205 3.93827 24.1735
rtibia 64.7881
rfoot 17.7905 1.70245
rtoes 14.2887
lfemur -18.7202 -0.134942 -21.5719
ltibia 29.2654
lfoot -6.11966 -1.37925
ltoes 2.58015
33
root 4.86208 17.8971 -14.7514 -3.53682 -6.14065 -1.32448
lowerback 10.9648 1.76055 0.074938
upperback 0.531587 2.38713 0.67622
thorax -5.61962 1.17971 0.292372
lowerneck -15.5918 -3.80983 -2.01368
upperneck 22.5997 -5.02256 0.801252
head 9.81545 -2.41155 -0.0369977
rclavicle -2.06317e-014 1.39149e-015
rhumerus -28.6696 -18.0206 -78.5103
rradius 28.8047
rwrist 0.909329
rhand -18.884 24.4413
rfingers 7.12502
rthumb 7.4171 -5.40867
lclavicle -2.06317e-014 1.39149e-015
lhumerus -36.9748 2.4968 83.3036
lradius 23.0368
lwrist 7.12792
lhand -26.5801 23.4901
lfingers 7.12502
lthumb -0.0144933 53.4699
rfemur -5.44015 3.83107 23.7143
rtibia 66.6878
rfoot 15.4192 1.84474
rtoes 12.545
lfemur -18.0065 -0.196969 -22.1102
ltibia 29.2303
lfoot -6.64847 -1.12743
ltoes 4.69591
34
root 4.87178 17.9086 -14.5668 -3.68861 -6.14661 -0.909582
lowerback 11.1303 1.74758 -0.311984
upperback 0.493777 2.31831 0.615521
thorax -5.7646 1.15477 0.451312
lowerneck -15.4374 -3.75005 -2.07501
upperneck 22.5119 -4.91344 0.75876
head 9.75413 -2.37304 -0.0231458
rclavicle 1.76313e-014 -5.59082e-015
rhumerus -28.9785 -18.0985 -78.3678
rradius 28.4583
rwrist 1.06685
rhand -18.5084 24.5917
rfingers 7.12502
rthumb 7.77968 -5.24513
lclavicle 1.76313e-014 -5.59082e-015
lhumerus -36.9002 2.26066 83.3158
lradius 23.0397
lwrist 7.06492
lhand -27.3458 23.7021
lfingers 7.12502
lthumb -0.754093 53.6805
rfemur -6.68277 3.74577 23.1894
rtibia 68.4825
rfoot 12.9348 2.31336
rtoes 12.0332
lfemur -17.215 0.11574 -22.7149
ltibia 29.1702
lfoot -7.02834 -1.14516
ltoes 4.36991
35
root 4.88168 17.9124 -14.3814 -3.82678 -6.10124 -0.615183
lowerback 11.0819 1.70477 -0.548125
upperback 0.596404 2.23068 0.608969
thorax -5.63706 1.1176 0.594475
lowerneck -15.3182 -3.69247 -2.25368
upperneck 22.3013 -4.78402 0.758643
head 9.66036 -2.33011 0.0277996
rclavicle -9.50284e-015 -1.3418e-015
rhumerus -29.0247 -18.2739 -78.2468
rradius 28.0998
rwrist 1.45555
rhand -18.428 24.3962
rfingers 7.12502
rthumb 7.85726 -5.43777
lclavicle -9.50284e-015 -1.3418e-015
lhumerus -36.4731 2.83018 82.9645
lradius 22.8686
lwrist 5.62959
lhand -26.6716 25.6212
lfingers 7.12502
lthumb -0.102928 55.601
rfemur -7.94144 3.65374 22.7924
rtibia 70.111
rfoot 10.5635 2.1119
rtoes 12.4734
lfemur -16.4484 0.205915 -23.1693
ltibia 29.1833
lfoot -7.09782 -0.887754
ltoes 3.04528
36
root 4.89525 17.916 -14.2012 -3.83279 -5.90534 -0.382911
lowerback 11.0377 1.63036 -0.624347
upperback 0.645048 2.1177 0.531512
thorax -5.55893 1.06286 0.576325
lowerneck -15.5441 -3.64953 -2.22239
upperneck 22.4449 -4.71473 0.699872
head 9.75003 -2.29971 0.00531778
rclavicle 1.50517e-014 1.19768e-014
rhumerus -28.9857 -18.9139 -78.1037
rradius 27.5422
rwrist 2.36757
rhand -18.2678 24.2399
rfingers 7.12502
rthumb 8.01186 -5.58822
lclavicle 1.50517e-014 1.19768e-014
lhumerus -36.1186 3.17423 82.5946
lradius 22.9671
lwrist 4.95217
lhand -25.3333 29.0234
lfingers 7.12502
lthumb 1.18962 58.9998
rfemur -9.34079 3.38064 22.4302
rtibia 71.5175
rfoot 8.62753 1.64475
rtoes 12.8525
lfemur -15.8713 0.0808965 -23.5756
ltibia 29.2577
lfoot -7.08861 -0.433257
ltoes 4.94902
37
root 4.90809 17.9217 -14.0235 -3.69023 -5.80678 -0.262585
lowerback 10.9724 1.5754 -0.599652
upperback 0.523434 2.04561 0.478221
thorax -5.64616 1.02668 0.517866
lowerneck -15.6121 -3.57212 -2.10221
upperneck 22.6567 -4.61379 0.592384
head 9.83027 -2.25382 -0.0421683
rclavicle 7.9607e-015 7.95139e-016
rhumerus -29.1875 -19.4329 -77.9193
rradius 26.975
rwrist 3.13103
rhand -17.8308 24.5038
rfingers 7.12502
rthumb 8.4336 -5.30777
lclavicle 7.9607e-015 7.95139e-016
lhumerus -36.0735 3.27053 82.3486
lradius 23.0593
lwrist 4.97465
lhand -25.2395 28.0918
lfingers 7.12502
lthumb 1.28023 58.0677
rfemur -10.8541 3.21582 22.1945
rtibia 72.6929
rfoot 6.99394 0.87423
rtoes 12.4261
lfemur -15.4572 -0.110584 -23.8536
ltibia 29.3951
lfoot -7.56824 -0.00549765
ltoes 5.16874
38
root 4.91522 17.9269 -13.8456 -3.65543 -5.80205 -0.141001
lowerback 10.7893 1.52119 -0.709876
upperback 0.559805 1.96308 0.515937
thorax -5.50912 0.989333 0.637645
lowerneck -15.5623 -3.52297 -2.09674
upperneck 22.642 -4.50886 0.439899
head 9.81008 -2.22293 -0.0811342
rclavicle 1.56947e-014 9.14409e-015
rhumerus -29.3065 -19.7657 -77.6996
rradius 26.5212
rwrist 3.87441
rhand -17.6528 24.5874
rfingers 7.12502
rthumb 8.60537 -5.21726
lclavicle 1.56947e-014 9.14409e-015
lhumerus -35.9517 3.65781 82.1462
lradius 23.2181
lwrist 5.0104
lhand -25.9152 25.6702
lfingers 7.12502
lthumb 0.627648 55.649
rfemur -12.1704 3.18457 22.0126
rtibia 73.6453
rfoot 5.44974 -0.0108821
rtoes 11.6473
lfemur -14.8862 -0.125356 -24.0933
ltibia 29.4874
lfoot -8.49246 0.214028
ltoes 5.43803
